<?xml version="1.0" encoding="UTF-8" standalone="no"?>
<!-- Created with Inkscape (http://www.inkscape.org/) -->

<svg
   xmlns:dc="http://purl.org/dc/elements/1.1/"
   xmlns:cc="http://creativecommons.org/ns#"
   xmlns:rdf="http://www.w3.org/1999/02/22-rdf-syntax-ns#"
   xmlns:svg="http://www.w3.org/2000/svg"
   xmlns="http://www.w3.org/2000/svg"
   xmlns:sodipodi="http://sodipodi.sourceforge.net/DTD/sodipodi-0.dtd"
   xmlns:inkscape="http://www.inkscape.org/namespaces/inkscape"
   width="63.889999"
   height="40.720001"
   id="svg5820"
   version="1.1"
   inkscape:version="0.48.1 "
   sodipodi:docname="Neues Dokument 2">
  <defs
     id="defs5822" />
  <sodipodi:namedview
     id="base"
     pagecolor="#ffffff"
     bordercolor="#666666"
     borderopacity="1.0"
     inkscape:pageopacity="0.0"
     inkscape:pageshadow="2"
     inkscape:zoom="12.682154"
     inkscape:cx="31.945004"
     inkscape:cy="20.360001"
     inkscape:document-units="px"
     inkscape:current-layer="layer1"
     showgrid="false"
     fit-margin-top="0"
     fit-margin-left="0"
     fit-margin-right="0"
     fit-margin-bottom="0"
     inkscape:window-width="1024"
     inkscape:window-height="708"
     inkscape:window-x="-4"
     inkscape:window-y="-4"
     inkscape:window-maximized="1" />
  <metadata
     id="metadata5825">
    <rdf:RDF>
      <cc:Work
         rdf:about="">
        <dc:format>image/svg+xml</dc:format>
        <dc:type
           rdf:resource="http://purl.org/dc/dcmitype/StillImage" />
        <dc:title></dc:title>
      </cc:Work>
    </rdf:RDF>
  </metadata>
  <g
     inkscape:label="Ebene 1"
     inkscape:groupmode="layer"
     id="layer1"
     transform="translate(-182.32753,-349.66937)">
    <path
       inkscape:connector-curvature="0"
       style="fill:#ffffff;fill-opacity:1;fill-rule:evenodd;stroke:none"
       d="m 228.97393,372.30719 -1.45509,6.23537 0.50294,0 -0.30763,1.28417 -0.50292,0 -0.0927,0.40039 -1.79199,0 0.0927,-0.40039 -3.6377,0 0.2832,-1.18652 0.3711,-0.005 1.48438,-6.32813 0.29296,-1.27441 1.83106,0 -0.14649,0.64941 c 0,0 0.46387,-0.35644 0.9082,-0.46875 0.45899,-0.12695 3.10548,-0.16601 3.10548,-0.16601 l -0.30274,1.25976 -0.63476,0 z m -3.22266,0 -0.36622,1.59669 c 0,0 0.51758,-0.24414 0.81055,-0.32715 0.29297,-0.0781 0.74219,-0.10737 0.74219,-0.10737 l 0.27344,-1.16212 -1.45996,0 z m -0.56153,2.3877 -0.38574,1.65528 c 0,0 0.53223,-0.28809 0.83008,-0.36133 0.28809,-0.083 0.7373,-0.13183 0.7373,-0.13183 l 0.27344,-1.16212 -1.45508,0 z m -0.89844,3.8623 1.45508,0 0.32715,-1.40136 -1.45996,0 -0.32227,1.40136 z m 0,0"
       id="path1348" />
    <path
       inkscape:connector-curvature="0"
       style="fill:#ffffff;fill-opacity:1;fill-rule:evenodd;stroke:none"
       d="m 230.00908,371.04743 1.94824,0 0.0244,0.72266 c -0.0146,0.11713 0.0927,0.18067 0.31737,0.18554 l 0.33204,0 -0.29298,1.1963 -1.05956,0 c -0.90821,0.0684 -1.25489,-0.32715 -1.23047,-0.76661 l -0.039,-1.33789 z m 0,0"
       id="path1350" />
    <path
       inkscape:connector-curvature="0"
       style="fill:#ffffff;fill-opacity:1;fill-rule:evenodd;stroke:none"
       d="m 230.34112,376.73591 -1.86037,0 0.24903,-1.06934 2.12402,0 0.2295,-0.97656 -2.09473,0 0.28321,-1.20117 5.83496,0 -0.28809,1.20117 -1.95312,0 -0.23438,0.97656 1.958,0 -0.24902,1.06934 -2.11914,0 -0.35644,0.44922 0.86425,0 0.30274,1.35254 c 0.0292,0.13184 0.044,0.21484 0.0879,0.27344 0.039,0.0489 0.30274,0.0733 0.4541,0.0733 l 0.26368,0 -0.3125,1.31347 -0.65918,0 c -0.1025,0 -0.25391,0 -0.46875,-0.0293 -0.19531,-0.01 -0.34669,-0.12696 -0.48829,-0.19531 -0.12695,-0.0538 -0.31737,-0.20509 -0.38086,-0.4541 l -0.29785,-1.34278 -0.86425,1.32813 c -0.28809,0.41015 -0.67871,0.72754 -1.38184,0.72754 l -1.35253,0 0.27343,-1.167 0.51758,0 c 0.14649,0 0.2832,-0.0538 0.37109,-0.1025 0.0976,-0.0489 0.18067,-0.0976 0.27832,-0.23925 l 1.26954,-1.98732 z m 0,0"
       id="path1352" />
    <path
       inkscape:connector-curvature="0"
       style="fill:#ffffff;fill-opacity:1;fill-rule:evenodd;stroke:none"
       d="m 209.78447,373.81111 4.92676,0 -0.2832,1.17676 -1.98243,0 -0.23437,1.00097 2.00195,0 -0.29296,1.21582 -2.00684,0 -0.38575,1.62597 c -0.0489,0.18068 0.48829,0.20509 0.6836,0.20509 l 0.99609,-0.13673 -0.32227,1.33789 -2.26562,0 c -0.18555,0 -0.31738,-0.0244 -0.51758,-0.0732 -0.19531,-0.044 -0.28808,-0.13184 -0.38573,-0.25879 -0.083,-0.13183 -0.21974,-0.23926 -0.15138,-0.52246 l 0.51758,-2.1582 -1.11817,0 0.29298,-1.23535 1.12792,0 0.23438,-1.00097 -1.11816,0 0.2832,-1.17677 z m 0,0"
       id="path1354" />
    <path
       inkscape:connector-curvature="0"
       style="fill:#ffffff;fill-opacity:1;fill-rule:evenodd;stroke:none"
       d="m 212.96807,371.70173 2.02148,0 -0.29297,1.22559 -2.75879,0 -0.2832,0.25879 c -0.11712,0.12695 -0.16602,0.0781 -0.32715,0.16113 -0.15137,0.0781 -0.46875,0.23925 -0.89844,0.23925 l -0.87891,0 0.28321,-1.18163 0.25879,0 c 0.22949,0 0.38085,-0.0195 0.4541,-0.0684 0.083,-0.0586 0.17578,-0.18067 0.27344,-0.38087 l 0.4541,-0.92772 2.00684,0 -0.3125,0.67382 z m 0,0"
       id="path1356" />
    <path
       inkscape:connector-curvature="0"
       style="fill:#ffffff;fill-opacity:1;fill-rule:evenodd;stroke:none"
       d="m 215.81474,371.03767 1.72851,0 -0.20507,0.86914 c 0,0 0.5127,-0.43457 0.89356,-0.58105 0.3662,-0.14649 1.2207,-0.27344 1.2207,-0.27344 l 2.7832,-0.0195 -0.75684,3.16406 c -0.12695,0.542 -0.28808,0.88868 -0.40038,1.05469 -0.0976,0.15137 -0.20508,0.29785 -0.44434,0.42481 -0.22461,0.12695 -0.43945,0.19531 -0.63476,0.2246 -0.18067,0.01 -0.46388,0.0146 -0.8545,0.0195 l -2.67578,0 -0.60059,2.5 c -0.0635,0.24903 -0.083,0.36621 -0.0341,0.42969 0.039,0.0635 0.13672,0.13184 0.26367,0.13184 l 1.17187,-0.11713 -0.3125,1.37206 -1.333,0 c -0.41504,0 -0.72754,-0.005 -0.93262,-0.0244 -0.20995,-0.0146 -0.42969,0 -0.57617,-0.11225 -0.12696,-0.10737 -0.32227,-0.24413 -0.32715,-0.39062 0.005,-0.1416 0.0489,-0.3711 0.11225,-0.67383 l 1.91407,-7.99805 z m 3.84766,3.19336 -2.8125,0 -0.13672,0.5664 2.44141,0 c 0.2832,-0.0292 0.34668,0.0146 0.36133,0 l 0.14648,-0.5664 z m -2.69531,-0.5127 c 0,0 0.51758,-0.49805 1.45508,-0.66406 0.20996,-0.044 1.5625,-0.0292 1.5625,-0.0292 l 0.15136,-0.67383 -2.83691,0 -0.33203,1.36719 z m 0,0"
       id="path1358" />
    <path
       inkscape:connector-curvature="0"
       style="fill:#ffffff;fill-opacity:1;fill-rule:evenodd;stroke:none"
       d="m 221.14678,376.14509 -0.10738,0.76172 c -0.0635,0.2295 -0.10737,0.41016 -0.26855,0.56641 -0.18555,0.15625 -0.39551,0.32226 -0.91308,0.32226 l -0.94728,0.039 0.039,0.85938 c 0.01,0.24413 0.0684,0.21972 0.11238,0.2539 0.0489,0.044 0.083,0.0635 0.12695,0.0781 l 0.30761,-0.0146 0.89844,-0.0537 -0.29297,1.25487 -1.04003,0 c -0.73732,0 -1.28907,-0.0146 -1.46973,-0.15136 -0.18555,-0.12213 -0.21485,-0.26368 -0.22461,-0.49316 l -0.14649,-3.3545 1.67481,0 0.0195,0.69336 0.40039,0 c 0.1416,0 0.2295,-0.0195 0.28809,-0.0586 0.044,-0.0341 0.0733,-0.0879 0.1025,-0.17579 l 0.12212,-0.52734 1.31837,0 z m 0,0"
       id="path1360" />
    <path
       inkscape:connector-curvature="0"
       style="fill:#ffffff;fill-opacity:1;fill-rule:nonzero;stroke:none"
       d="m 197.27959,359.37751 c -0.0635,0.27343 -1.13281,5.21485 -1.1377,5.21485 -0.22949,1.00586 -0.40527,1.71875 -0.96191,2.18261 -0.33691,0.25879 -0.71289,0.39062 -1.14258,0.39062 -0.70312,0 -1.11816,-0.34667 -1.19141,-1.01562 l -0.0195,-0.2246 c 0,0 0.21973,-1.3379 0.21973,-1.34278 0,0 1.12792,-4.51172 1.333,-5.10742 0.005,-0.0292 0.01,-0.0489 0.0195,-0.0684 -2.19239,0.0244 -2.58302,0.005 -2.60743,-0.039 -0.0146,0.0489 -0.0733,0.33204 -0.0733,0.33204 l -1.14746,5.083 -0.10738,0.42969 -0.18066,1.41114 c 0,0.41015 0.0781,0.76171 0.24414,1.04003 0.52246,0.92285 2.02149,1.05958 2.86134,1.05958 1.08886,0 2.10448,-0.23926 2.79785,-0.6543 1.19628,-0.70801 1.51366,-1.82129 1.7871,-2.80274 l 0.12696,-0.49805 c 0,0 1.16699,-4.68261 1.3623,-5.29296 0.005,-0.0292 0.0146,-0.0489 0.0195,-0.0684 -1.58693,0.0195 -2.05079,0 -2.20215,-0.0292"
       id="path1362" />
    <path
       inkscape:connector-curvature="0"
       style="fill:#ffffff;fill-opacity:1;fill-rule:nonzero;stroke:none"
       d="m 203.68584,368.67438 c -0.77637,-0.0146 -1.04981,-0.0146 -1.95312,0.0292 l -0.044,-0.0635 c 0.083,-0.35156 0.1709,-0.68847 0.24902,-1.04004 l 0.10738,-0.46875 c 0.1709,-0.74218 0.34178,-1.5918 0.35156,-1.85547 0.0195,-0.15136 0.0684,-0.54688 -0.37598,-0.54688 -0.18555,0 -0.38575,0.0927 -0.58593,0.18555 -0.1025,0.39063 -0.33204,1.48438 -0.43458,1.98732 -0.22461,1.05956 -0.24414,1.17675 -0.3418,1.69432 l -0.0684,0.0781 c -0.80077,-0.0146 -1.07421,-0.0146 -1.99219,0.0292 l -0.039,-0.0732 c 0.14649,-0.62989 0.30274,-1.25976 0.44434,-1.88965 0.39063,-1.69434 0.4834,-2.34864 0.58594,-3.20801 l 0.0733,-0.0635 c 0.90331,-0.11225 1.11816,-0.14649 2.09472,-0.34668 l 0.0781,0.0928 -0.15137,0.54688 c 0.16602,-0.1025 0.33204,-0.2002 0.49805,-0.29298 0.4541,-0.21483 0.9668,-0.2832 1.25,-0.2832 0.41992,0 0.88379,0.11713 1.0791,0.61035 0.19531,0.43945 0.0635,0.97657 -0.18066,2.0459 l -0.11713,0.54199 c -0.25879,1.18653 -0.29296,1.41114 -0.43456,2.21191 l -0.0927,0.0781 z m 0,0"
       id="path1364" />
    <path
       inkscape:connector-curvature="0"
       style="fill:#ffffff;fill-opacity:1;fill-rule:nonzero;stroke:none"
       d="m 206.84013,368.67438 c -0.46875,-0.01 -0.7666,-0.0146 -1.05956,-0.01 -0.29298,0.01 -0.58107,0.0146 -1.01563,0.039 l -0.0244,-0.039 -0.0244,-0.0341 c 0.11713,-0.4541 0.18066,-0.61035 0.23925,-0.7666 0.0586,-0.16114 0.11713,-0.32227 0.21973,-0.78125 0.13183,-0.59082 0.21972,-1.00586 0.27832,-1.37207 0.0635,-0.35157 0.0976,-0.64942 0.1416,-1.00098 l 0.044,-0.0244 0.0292,-0.0292 c 0.46875,-0.0684 0.76173,-0.11225 1.06934,-0.16114 0.29785,-0.0489 0.61035,-0.1025 1.09375,-0.19531 l 0.0146,0.044 0.0195,0.039 c -0.0976,0.3711 -0.18066,0.74219 -0.27344,1.11816 -0.0879,0.36133 -0.1709,0.73732 -0.25391,1.10352 -0.18555,0.78613 -0.24414,1.07911 -0.28809,1.2793 -0.039,0.20507 -0.0489,0.3125 -0.11712,0.71288 l -0.0439,0.039 -0.0489,0.039 z m 0,0"
       id="path1366" />
    <path
       inkscape:connector-curvature="0"
       style="fill:#ffffff;fill-opacity:1;fill-rule:nonzero;stroke:none"
       d="m 213.81768,365.99372 c 0.27344,-1.19629 0.0684,-1.75293 -0.2002,-2.09473 -0.41016,-0.51757 -1.11816,-0.68358 -1.86524,-0.68358 -0.44434,0 -1.49902,0.0489 -2.3291,0.81053 -0.59082,0.55177 -0.8789,1.29884 -1.04004,2.02149 -0.16601,0.72754 -0.36132,2.05566 0.84473,2.53419 0.37597,0.15625 0.91309,0.20507 1.25489,0.20507 0.89355,0 1.80175,-0.24413 2.48046,-0.97656 0.53222,-0.58106 0.77149,-1.4502 0.8545,-1.81641 m -2.02638,-0.0879 c -0.0439,0.2002 -0.21972,0.96191 -0.46386,1.27441 -0.16114,0.23438 -0.36132,0.37598 -0.57129,0.37598 -0.0635,0 -0.44922,0 -0.45898,-0.57617 0,-0.27832 0.0489,-0.56641 0.12212,-0.8838 0.20508,-0.90331 0.44921,-1.65526 1.05956,-1.65526 0.48829,0 0.51758,0.55664 0.3125,1.46484"
       id="path1368" />
    <path
       inkscape:connector-curvature="0"
       style="fill:#ffffff;fill-opacity:1;fill-rule:nonzero;stroke:none"
       d="m 230.94169,367.27302 c -0.15625,0.22949 -0.5371,0.36621 -0.74706,0.36621 -0.0635,0 -0.44434,0 -0.4541,-0.56152 -0.005,-0.27833 0.0489,-0.5664 0.122,-0.88379 0.2002,-0.88379 0.44434,-1.64063 1.06446,-1.64063 0.3955,0 0.59081,0.39063 0.5371,1.03028 -0.0341,0.1416 -0.0538,0.27344 -0.0927,0.44434 -0.0684,0.27343 -0.14647,0.55175 -0.21484,0.83007 -0.0586,0.16114 -0.12695,0.3125 -0.21485,0.41504 m 3.08594,-3.99903 c -0.97656,0.18067 -1.23535,0.21485 -2.16307,0.3418 l -0.0781,0.0635 c -0.005,0.0781 -0.0195,0.15137 -0.0293,0.22462 -0.1416,-0.23927 -0.3418,-0.44434 -0.67383,-0.56642 -0.41992,-0.16601 -1.39161,0.0489 -2.22169,0.81055 -0.5957,0.54199 -0.86913,1.28907 -1.04492,1.99708 -0.16113,0.72754 -0.35644,2.0459 0.84961,2.51465 0.38086,0.16112 0.73243,0.20995 1.07423,0.19042 0.38085,-0.0195 0.71288,-0.21485 1.03515,-0.47851 -0.0341,0.11225 -0.0586,0.2246 -0.0879,0.33691 l 0.0538,0.0732 c 0.86913,-0.044 1.13768,-0.044 2.07518,-0.0292 l 0.0879,-0.0733 c 0.13184,-0.80077 0.26855,-1.58202 0.62012,-3.125 0.1709,-0.7373 0.34667,-1.46483 0.52735,-2.19726 l -0.0244,-0.083 z m 0,0"
       id="path1370" />
    <path
       inkscape:connector-curvature="0"
       style="fill:#ffffff;fill-opacity:1;fill-rule:nonzero;stroke:none"
       d="m 219.12529,368.67438 c -0.78125,-0.0146 -1.04004,-0.0146 -1.95801,0.0292 l -0.0341,-0.0635 c 0.083,-0.35156 0.1709,-0.68847 0.24902,-1.04004 l 0.11225,-0.46875 c 0.16114,-0.74218 0.33204,-1.5918 0.35157,-1.85547 0.01,-0.15136 0.0586,-0.54688 -0.38574,-0.54688 -0.18066,0 -0.38575,0.0927 -0.58594,0.18555 -0.1025,0.39063 -0.32715,1.48438 -0.43457,1.98732 -0.21484,1.05956 -0.23438,1.17675 -0.33203,1.69432 l -0.0733,0.0781 c -0.7959,-0.0146 -1.06934,-0.0146 -1.99219,0.0292 l -0.0439,-0.0732 c 0.15625,-0.62989 0.30762,-1.25976 0.44922,-1.88965 0.39062,-1.69434 0.47851,-2.34864 0.59082,-3.20801 l 0.0733,-0.0635 c 0.89844,-0.11225 1.11329,-0.14649 2.08985,-0.34668 l 0.0781,0.0928 -0.14649,0.54688 c 0.15625,-0.1025 0.32227,-0.2002 0.48828,-0.29298 0.45899,-0.21483 0.9668,-0.2832 1.24512,-0.2832 0.4248,0 0.89355,0.11713 1.08887,0.61035 0.18555,0.43945 0.0635,0.97657 -0.18067,2.0459 l -0.12212,0.54199 c -0.2539,1.18653 -0.29296,1.41114 -0.43456,2.21191 l -0.0927,0.0781 z m 0,0"
       id="path1372" />
    <path
       inkscape:connector-curvature="0"
       style="fill:#ffffff;fill-opacity:1;fill-rule:nonzero;stroke:none"
       d="m 226.70342,362.26813 c -0.1416,0.61524 -0.53712,1.14259 -1.05469,1.39161 -0.42969,0.21484 -0.94239,0.23438 -1.48438,0.23438 l -0.35156,0 0.0292,-0.14161 c 0,0 0.63965,-2.7832 0.63965,-2.77344 l 0.0146,-0.13671 0.0146,-0.11713 0.25879,0.0244 c 0,0 1.31836,0.12213 1.34766,0.12695 0.51758,0.19531 0.7373,0.72266 0.58594,1.3916 m -0.84473,-2.90526 c 0,0 -0.64453,0.0146 -0.64453,0.0146 -1.67969,0.0195 -2.34863,0.01 -2.63184,-0.0244 -0.0244,0.12213 -0.0684,0.3418 -0.0684,0.3418 0,0 -0.59571,2.78809 -0.59571,2.79298 0,0 -1.44043,5.93261 -1.50879,6.20605 1.45996,-0.0146 2.06544,-0.0195 2.31446,0.01 0.0586,-0.27344 0.40039,-1.93359 0.40526,-1.93359 0,0 0.28809,-1.21582 0.30763,-1.25977 0,0 0.083,-0.12695 0.18066,-0.17578 l 0.13671,0 c 1.25978,0 2.69044,0 3.81349,-0.8252 0.75683,-0.56152 1.27441,-1.3916 1.51366,-2.40722 0.0538,-0.24903 0.1025,-0.54688 0.1025,-0.84473 0,-0.38086 -0.0781,-0.77149 -0.30272,-1.07421 -0.56641,-0.7959 -1.7041,-0.80568 -3.02246,-0.82031"
       id="path1374" />
    <path
       inkscape:connector-curvature="0"
       style="fill:#ffffff;fill-opacity:1;fill-rule:nonzero;stroke:none"
       d="m 207.69463,363.89899 c 0.51269,-0.34667 0.58105,-0.84961 0.14649,-1.10351 -0.43947,-0.25879 -1.20607,-0.17579 -1.72364,0.17578 -0.52246,0.36133 -0.57618,0.8545 -0.1416,1.11328 0.43456,0.2539 1.20117,0.17578 1.71875,-0.18555"
       id="path1376" />
    <path
       inkscape:connector-curvature="0"
       style="fill:#ffffff;fill-opacity:1;fill-rule:evenodd;stroke:none"
       d="m 240.49737,363.26423 -0.083,-0.0879 c -0.95704,0.19531 -1.12793,0.22949 -2.01173,0.34179 l -0.0684,0.0635 c 0,0.0195 0,0.0292 -0.005,0.044 l -0.005,-0.0146 c -0.65917,1.51856 -0.63476,1.19141 -1.16699,2.38281 -0.005,-0.0537 -0.005,-0.0927 -0.005,-0.14647 l -0.13636,-2.58313 -0.083,-0.0879 c -1.00097,0.19531 -1.03027,0.22949 -1.95312,0.34179 l -0.0733,0.0635 c -0.01,0.0341 -0.0146,0.0684 -0.0195,0.1025 l 0.01,0.0146 c 0.11225,0.59081 0.0879,0.46386 0.20507,1.39647 0.0489,0.45899 0.12213,0.92285 0.17578,1.38184 0.0928,0.74708 0.14648,1.12794 0.25391,2.28028 -0.625,1.04003 -0.77149,1.43066 -1.37208,2.33886 l 0,0.005 -0.4248,0.66895 c -0.0489,0.0781 -0.0927,0.12695 -0.15625,0.1416 -0.0635,0.0341 -0.15625,0.044 -0.27832,0.044 l -0.32226,0 -0.27833,1.21582 1.21094,-0.0195 c 0.70312,-0.005 1.15235,-0.34668 1.39161,-0.78613 l 0.74706,-1.29395 4.44825,-7.80762 z m 0,0"
       id="path1378" />
    <path
       inkscape:connector-curvature="0"
       style="fill:#e31435;fill-opacity:1;fill-rule:nonzero;stroke:none"
       d="m 195.44365,350.67146 15.44922,0 c 2.1582,0 3.4961,1.75781 2.99316,3.9209 l -7.19238,30.8789 c -0.50781,2.15821 -2.66113,3.91602 -4.81446,3.91602 l -15.4541,0 c -2.15331,0 -3.49609,-1.75781 -2.99316,-3.91602 l 7.19726,-30.8789 c 0.50294,-2.16309 2.65625,-3.9209 4.81446,-3.9209"
       id="path1380" />
    <path
       inkscape:connector-curvature="0"
       style="fill:#0f3f75;fill-opacity:1;fill-rule:nonzero;stroke:none"
       d="m 209.61357,350.67146 15.44922,0 c 2.15333,0 3.50098,1.75781 2.98828,3.9209 l -7.1875,30.8789 c -0.50782,2.15821 -2.66602,3.91602 -4.8291,3.91602 l -15.44434,0 c -2.1582,0 -3.49609,-1.75781 -2.98828,-3.91602 l 7.1875,-30.8789 c 0.50293,-2.16309 2.66602,-3.9209 4.82422,-3.9209"
       id="path1382" />
    <path
       inkscape:connector-curvature="0"
       style="fill:#00737f;fill-opacity:1;fill-rule:nonzero;stroke:none"
       d="m 226.679,350.67146 15.43457,0 c 2.15821,0 3.50586,1.75781 2.99805,3.9209 l -7.19238,30.8789 c -0.50294,2.15821 -2.66114,3.91602 -4.81934,3.91602 l -15.4541,0 c -2.15332,0 -3.50098,-1.75781 -2.99317,-3.91602 l 7.19239,-30.8789 c 0.50292,-2.16309 2.66601,-3.9209 4.83398,-3.9209"
       id="path1384" />
    <path
       inkscape:connector-curvature="0"
       style="fill:#ffffff;fill-opacity:1;fill-rule:evenodd;stroke:none"
       d="m 228.97393,373.46931 -1.45509,6.22558 0.50294,0 -0.30763,1.29395 -0.50292,0 -0.0927,0.3955 -1.79199,0 0.0927,-0.3955 -3.6377,0 0.2832,-1.19141 0.3711,-0.005 1.48438,-6.32325 0.29296,-1.27441 1.83106,0 -0.14649,0.64454 c 0,0 0.46387,-0.35645 0.9082,-0.47364 0.45899,-0.11713 3.10548,-0.16601 3.10548,-0.16601 l -0.30274,1.26952 -0.63476,0 z m -3.22266,0 -0.36622,1.5918 c 0,0 0.51758,-0.24414 0.81055,-0.32227 0.29297,-0.0781 0.74219,-0.11712 0.74219,-0.11712 l 0.27344,-1.15235 -1.45996,0 z m -0.56153,2.3877 -0.38574,1.6455 c 0,0 0.53223,-0.27832 0.83008,-0.36133 0.28809,-0.0781 0.7373,-0.12695 0.7373,-0.12695 l 0.27344,-1.15722 -1.45508,0 z m -0.89844,3.85742 1.45508,0 0.32715,-1.40137 -1.45996,0 -0.32227,1.40137 z m 0,0"
       id="path1386" />
    <path
       inkscape:connector-curvature="0"
       style="fill:#ffffff;fill-opacity:1;fill-rule:evenodd;stroke:none"
       d="m 230.00908,372.20466 1.94824,0 0.0244,0.72266 c -0.0146,0.12212 0.0927,0.17577 0.31737,0.18066 l 0.33204,0 -0.29298,1.20118 -1.05956,0 c -0.90821,0.0635 -1.25489,-0.32715 -1.23047,-0.7666 l -0.039,-1.3379 z m 0,0"
       id="path1388" />
    <path
       inkscape:connector-curvature="0"
       style="fill:#ffffff;fill-opacity:1;fill-rule:evenodd;stroke:none"
       d="m 230.34112,377.89313 -1.86037,0 0.24903,-1.06445 2.12402,0 0.2295,-0.97656 -2.09473,0 0.28321,-1.20605 5.83496,0 -0.28809,1.20605 -1.95312,0 -0.23438,0.97656 1.958,0 -0.24902,1.06445 -2.11914,0 -0.35644,0.45411 0.86425,0 0.30274,1.34765 c 0.0292,0.12695 0.044,0.21485 0.0879,0.27344 0.039,0.044 0.30274,0.0684 0.4541,0.0684 l 0.26368,0 -0.3125,1.31836 -0.65918,0 c -0.1025,0 -0.25391,-0.005 -0.46875,-0.0244 -0.19531,-0.01 -0.34669,-0.13671 -0.48829,-0.19531 -0.12695,-0.0586 -0.31737,-0.20507 -0.38086,-0.45897 l -0.29785,-1.34278 -0.86425,1.32324 c -0.28807,0.41986 -0.6787,0.73236 -1.38182,0.73236 l -1.35254,0 0.27344,-1.16211 0.51757,0 c 0.14649,0 0.2832,-0.0635 0.37109,-0.11225 0.0976,-0.044 0.18067,-0.0928 0.27832,-0.2295 l 1.26954,-1.99219 z m 0,0"
       id="path1390" />
    <path
       inkscape:connector-curvature="0"
       style="fill:#ffffff;fill-opacity:1;fill-rule:evenodd;stroke:none"
       d="m 209.78447,374.97322 4.92676,0 -0.2832,1.17187 -1.98243,0 -0.23437,1.00585 2.00195,0 -0.29296,1.21094 -2.00684,0 -0.38575,1.6211 c -0.0489,0.18066 0.48829,0.21484 0.6836,0.21484 l 0.99609,-0.1416 -0.32227,1.33301 -2.26562,0 c -0.18555,0 -0.31738,-0.0146 -0.51758,-0.0635 -0.19531,-0.0489 -0.28808,-0.13672 -0.38573,-0.26367 -0.083,-0.12695 -0.21974,-0.24414 -0.15138,-0.52247 l 0.51758,-2.1582 -1.11817,0 0.29298,-1.23047 1.12792,0 0.23438,-1.00585 -1.11816,0 0.2832,-1.17188 z m 0,0"
       id="path1392" />
    <path
       inkscape:connector-curvature="0"
       style="fill:#ffffff;fill-opacity:1;fill-rule:evenodd;stroke:none"
       d="m 212.96807,372.85896 2.02148,0 -0.29297,1.22558 -2.75879,0 -0.2832,0.26368 c -0.11712,0.12212 -0.16602,0.0733 -0.32715,0.15625 -0.15137,0.083 -0.46875,0.23437 -0.89844,0.23437 l -0.87891,0 0.28321,-1.17676 0.25879,0 c 0.22949,0 0.38085,-0.0244 0.4541,-0.0732 0.083,-0.0489 0.17578,-0.17579 0.27344,-0.38086 l 0.4541,-0.91798 2.00684,0 -0.3125,0.66895 z m 0,0"
       id="path1394" />
    <path
       inkscape:connector-curvature="0"
       style="fill:#ffffff;fill-opacity:1;fill-rule:evenodd;stroke:none"
       d="m 215.81474,372.19489 1.72851,0 -0.20507,0.87403 c 0,0 0.5127,-0.43945 0.89356,-0.58594 0.3662,-0.14649 1.2207,-0.27344 1.2207,-0.27344 l 2.7832,-0.0146 -0.75684,3.15918 c -0.12695,0.54687 -0.28808,0.89356 -0.40038,1.04981 -0.0976,0.16113 -0.20508,0.29785 -0.44434,0.43456 -0.22461,0.12213 -0.43945,0.19532 -0.63476,0.21485 -0.18067,0.0195 -0.46388,0.0195 -0.8545,0.0244 l -2.67578,0 -0.60059,2.5 c -0.0635,0.24903 -0.083,0.36622 -0.0341,0.43458 0.039,0.0537 0.13672,0.12212 0.26367,0.12212 l 1.17187,-0.11225 -0.3125,1.37695 -1.333,0 c -0.41504,0 -0.72754,-0.01 -0.93262,-0.0292 -0.20995,-0.0146 -0.42969,0 -0.57617,-0.11225 -0.12696,-0.11225 -0.32227,-0.24902 -0.32715,-0.39551 0.005,-0.13671 0.0489,-0.36132 0.11225,-0.66406 l 1.91407,-8.00293 z m 3.84766,3.19824 -2.8125,0 -0.13672,0.56641 2.44141,0 c 0.2832,-0.0292 0.34668,0.005 0.36133,-0.005 l 0.14648,-0.56152 z m -2.69531,-0.51269 c 0,0 0.51758,-0.50781 1.45508,-0.67382 0.20996,-0.0341 1.5625,-0.0244 1.5625,-0.0244 l 0.15136,-0.67383 -2.83691,0 -0.33203,1.37208 z m 0,0"
       id="path1396" />
    <path
       inkscape:connector-curvature="0"
       style="fill:#ffffff;fill-opacity:1;fill-rule:evenodd;stroke:none"
       d="m 221.14678,377.29743 -0.10738,0.76173 c -0.0635,0.23437 -0.10737,0.41503 -0.26855,0.57616 -0.18555,0.15625 -0.39551,0.32227 -0.91308,0.32227 l -0.94728,0.0341 0.039,0.85449 c 0.01,0.25391 0.0684,0.22461 0.11238,0.26368 0.0489,0.044 0.083,0.0586 0.12695,0.0733 l 0.30761,-0.0146 0.89844,-0.0537 -0.29297,1.25976 -1.04003,0 c -0.73732,0 -1.28907,-0.0244 -1.46973,-0.16114 -0.18555,-0.12212 -0.21485,-0.2539 -0.22461,-0.48827 l -0.14649,-3.34962 1.67481,0 0.0195,0.6836 0.40039,0 c 0.1416,0 0.2295,-0.01 0.28809,-0.0489 0.044,-0.039 0.0733,-0.0928 0.1025,-0.17577 l 0.12212,-0.53711 1.31837,0 z m 0,0"
       id="path1398" />
    <path
       inkscape:connector-curvature="0"
       style="fill:#ffffff;fill-opacity:1;fill-rule:nonzero;stroke:none"
       d="m 197.27959,360.52986 c -0.0635,0.2832 -1.13281,5.21972 -1.1377,5.22461 -0.22949,0.99609 -0.40527,1.71386 -0.96191,2.17285 -0.33691,0.26855 -0.71289,0.3955 -1.14258,0.3955 -0.70312,0 -1.11816,-0.34668 -1.19141,-1.01074 l -0.0195,-0.22949 c 0,0 0.21973,-1.33301 0.21973,-1.3379 0,0 1.12792,-4.51171 1.333,-5.1123 0.005,-0.0341 0.01,-0.0537 0.0195,-0.0732 -2.19239,0.0292 -2.58302,0.01 -2.60743,-0.0293 -0.0146,0.0489 -0.0733,0.33203 -0.0733,0.33203 l -1.14746,5.07812 -0.10738,0.42969 -0.18066,1.40625 c 0,0.41993 0.0781,0.76173 0.24414,1.04981 0.52246,0.91309 2.02149,1.0498 2.86134,1.0498 1.08886,0 2.10448,-0.23437 2.79785,-0.64941 1.19628,-0.71289 1.51366,-1.82129 1.7871,-2.79785 l 0.12696,-0.50781 c 0,0 1.16699,-4.68261 1.3623,-5.28809 0.005,-0.0341 0.0146,-0.0538 0.0195,-0.0733 -1.58693,0.0244 -2.05079,0.01 -2.20215,-0.0292"
       id="path1400" />
    <path
       inkscape:connector-curvature="0"
       style="fill:#ffffff;fill-opacity:1;fill-rule:nonzero;stroke:none"
       d="m 203.68584,369.82673 c -0.77637,-0.01 -1.04981,-0.01 -1.95312,0.0292 l -0.044,-0.0586 c 0.083,-0.35156 0.1709,-0.69336 0.24902,-1.04004 l 0.10738,-0.46875 c 0.1709,-0.7373 0.34178,-1.58691 0.35156,-1.85058 0.0195,-0.15625 0.0684,-0.54688 -0.37598,-0.54688 -0.18555,0 -0.38575,0.0879 -0.58593,0.18066 -0.1025,0.38575 -0.33204,1.48927 -0.43458,1.98732 -0.22461,1.05956 -0.24414,1.18163 -0.3418,1.69921 l -0.0684,0.0684 c -0.80077,-0.01 -1.07421,-0.01 -1.99219,0.0292 l -0.039,-0.0684 c 0.14649,-0.63476 0.30274,-1.25976 0.44434,-1.88965 0.39063,-1.69921 0.4834,-2.34375 0.58594,-3.20801 l 0.0733,-0.0586 c 0.90331,-0.12213 1.11816,-0.15137 2.09472,-0.35157 l 0.0781,0.0879 -0.15137,0.55177 c 0.16602,-0.0976 0.33204,-0.19532 0.49805,-0.28809 0.4541,-0.21973 0.9668,-0.29298 1.25,-0.29298 0.41992,0 0.88379,0.12213 1.0791,0.61037 0.19531,0.43945 0.0635,0.98143 -0.18066,2.05077 l -0.11713,0.53711 c -0.25879,1.1914 -0.29296,1.41113 -0.43456,2.22168 l -0.0927,0.0684 z m 0,0"
       id="path1402" />
    <path
       inkscape:connector-curvature="0"
       style="fill:#ffffff;fill-opacity:1;fill-rule:nonzero;stroke:none"
       d="m 206.84013,369.82673 c -0.46875,-0.01 -0.7666,-0.01 -1.05956,0 -0.29298,0 -0.58107,0.01 -1.01563,0.0292 l -0.0244,-0.039 -0.0244,-0.0292 c 0.11713,-0.44922 0.18066,-0.61035 0.23925,-0.7666 0.0586,-0.16114 0.11713,-0.31739 0.21973,-0.77637 0.13183,-0.59082 0.21972,-1.01563 0.27832,-1.37207 0.0635,-0.36132 0.0976,-0.6543 0.1416,-1.00097 l 0.044,-0.0292 0.0292,-0.0341 c 0.46875,-0.0586 0.76173,-0.1025 1.06934,-0.15625 0.29785,-0.044 0.61035,-0.0976 1.09375,-0.19044 l 0.0146,0.039 0.0195,0.039 c -0.0976,0.3711 -0.18066,0.74219 -0.27344,1.11329 -0.0879,0.37109 -0.1709,0.74219 -0.25391,1.1084 -0.18555,0.78125 -0.24414,1.0791 -0.28809,1.28417 -0.039,0.2002 -0.0489,0.30274 -0.11712,0.71289 l -0.0439,0.039 -0.0489,0.0292 z m 0,0"
       id="path1404" />
    <path
       inkscape:connector-curvature="0"
       style="fill:#ffffff;fill-opacity:1;fill-rule:nonzero;stroke:none"
       d="m 213.81768,367.15094 c 0.27344,-1.19628 0.0684,-1.75781 -0.2002,-2.08983 -0.41016,-0.52247 -1.11816,-0.69337 -1.86524,-0.69337 -0.44434,0 -1.49902,0.0489 -2.3291,0.82032 -0.59082,0.54687 -0.8789,1.29882 -1.04004,2.01172 -0.16601,0.73241 -0.36132,2.06054 0.84473,2.53906 0.37597,0.16113 0.91309,0.20997 1.25489,0.20997 0.89355,0 1.80175,-0.24903 2.48046,-0.98145 0.53222,-0.57618 0.77149,-1.45508 0.8545,-1.81642 m -2.02638,-0.083 c -0.0439,0.19532 -0.21972,0.95215 -0.46386,1.26953 -0.16114,0.2295 -0.36132,0.3711 -0.57129,0.3711 -0.0635,0 -0.44922,0 -0.45898,-0.56641 0,-0.2832 0.0489,-0.57129 0.12212,-0.88379 0.20508,-0.89844 0.44921,-1.66015 1.05956,-1.66015 0.48829,0 0.51758,0.55664 0.3125,1.46972"
       id="path1406" />
    <path
       inkscape:connector-curvature="0"
       style="fill:#ffffff;fill-opacity:1;fill-rule:nonzero;stroke:none"
       d="m 230.94169,368.43513 c -0.15625,0.22461 -0.5371,0.36621 -0.74706,0.36621 -0.0635,0 -0.44434,0 -0.4541,-0.56152 -0.005,-0.2832 0.0489,-0.57129 0.122,-0.88379 0.2002,-0.89356 0.44434,-1.64551 1.06446,-1.64551 0.3955,0 0.59081,0.39062 0.5371,1.03027 -0.0341,0.1416 -0.0538,0.27344 -0.0927,0.43945 -0.0684,0.2832 -0.14647,0.55664 -0.21484,0.83008 -0.0586,0.16602 -0.12695,0.32227 -0.21485,0.42481 m 3.08594,-4.00391 c -0.97656,0.17579 -1.23535,0.21972 -2.16307,0.34669 l -0.0781,0.0586 c -0.005,0.0781 -0.0195,0.14648 -0.0293,0.2295 -0.1416,-0.23927 -0.3418,-0.44434 -0.67383,-0.57618 -0.41992,-0.15625 -1.39161,0.0489 -2.22169,0.81543 -0.5957,0.54687 -0.86913,1.28418 -1.04492,2.00195 -0.16113,0.71777 -0.35644,2.04102 0.84961,2.50977 0.38086,0.16113 0.73243,0.20996 1.07423,0.19043 0.38085,-0.0146 0.71288,-0.20997 1.03515,-0.4834 -0.0341,0.11225 -0.0586,0.2295 -0.0879,0.3418 l 0.0538,0.0684 c 0.86913,-0.0341 1.13768,-0.0341 2.07518,-0.0244 l 0.0879,-0.0732 c 0.13184,-0.80078 0.26855,-1.58692 0.62012,-3.12988 0.1709,-0.73242 0.34667,-1.46485 0.52735,-2.19727 l -0.0244,-0.0781 z m 0,0"
       id="path1408" />
    <path
       inkscape:connector-curvature="0"
       style="fill:#ffffff;fill-opacity:1;fill-rule:nonzero;stroke:none"
       d="m 219.12529,369.82673 c -0.78125,-0.01 -1.04004,-0.01 -1.95801,0.0292 l -0.0341,-0.0586 c 0.083,-0.35156 0.1709,-0.69336 0.24902,-1.04004 l 0.11225,-0.46875 c 0.16114,-0.7373 0.33204,-1.58691 0.35157,-1.85058 0.01,-0.15625 0.0586,-0.54688 -0.38574,-0.54688 -0.18066,0 -0.38575,0.0879 -0.58594,0.18066 -0.1025,0.38575 -0.32715,1.48927 -0.43457,1.98732 -0.21484,1.05956 -0.23438,1.18163 -0.33203,1.69921 l -0.0733,0.0684 c -0.7959,-0.01 -1.06934,-0.01 -1.99219,0.0292 l -0.0439,-0.0684 c 0.15625,-0.63476 0.30762,-1.25976 0.44922,-1.88965 0.39062,-1.69921 0.47851,-2.34375 0.59082,-3.20801 l 0.0733,-0.0586 c 0.89844,-0.12213 1.11329,-0.15137 2.08985,-0.35157 l 0.0781,0.0879 -0.14649,0.55177 c 0.15625,-0.0976 0.32227,-0.19532 0.48828,-0.28809 0.45899,-0.21973 0.9668,-0.29298 1.24512,-0.29298 0.4248,0 0.89355,0.12213 1.08887,0.61037 0.18555,0.43945 0.0635,0.98143 -0.18067,2.05077 l -0.12212,0.53711 c -0.2539,1.1914 -0.29296,1.41113 -0.43456,2.22168 l -0.0927,0.0684 z m 0,0"
       id="path1410" />
    <path
       inkscape:connector-curvature="0"
       style="fill:#ffffff;fill-opacity:1;fill-rule:nonzero;stroke:none"
       d="m 226.70342,363.43024 c -0.1416,0.61524 -0.53712,1.13282 -1.05469,1.3916 -0.42969,0.20997 -0.94239,0.2295 -1.48438,0.2295 l -0.35156,0 0.0292,-0.13672 c 0,0 0.63965,-2.7832 0.63965,-2.77831 l 0.0146,-0.14162 0.0146,-0.10737 0.25879,0.0195 c 0,0 1.31836,0.11712 1.34766,0.12695 0.51758,0.2002 0.7373,0.71777 0.58594,1.39649 m -0.84473,-2.91015 c 0,0 -0.64453,0.0146 -0.64453,0.0146 -1.67969,0.0195 -2.34863,0.0146 -2.63184,-0.0244 -0.0244,0.12212 -0.0684,0.3418 -0.0684,0.3418 0,0 -0.59571,2.79297 -0.59571,2.79297 0,0 -1.44043,5.92773 -1.50879,6.21094 1.45996,-0.0244 2.06544,-0.0244 2.31446,0.005 0.0586,-0.27831 0.40039,-1.93359 0.40526,-1.93848 0,0 0.28809,-1.21581 0.30763,-1.25 0,0 0.083,-0.13183 0.18066,-0.18066 l 0.13671,0 c 1.25978,0 2.69044,0 3.81349,-0.83007 0.75683,-0.55177 1.27441,-1.3916 1.51366,-2.40235 0.0538,-0.24903 0.1025,-0.54199 0.1025,-0.84473 0,-0.38086 -0.0781,-0.7666 -0.30272,-1.0791 -0.56641,-0.7959 -1.7041,-0.80077 -3.02246,-0.81542"
       id="path1412" />
    <path
       inkscape:connector-curvature="0"
       style="fill:#ffffff;fill-opacity:1;fill-rule:nonzero;stroke:none"
       d="m 207.69463,365.06111 c 0.51269,-0.35645 0.58105,-0.84962 0.14649,-1.11329 -0.43947,-0.24901 -1.20607,-0.17089 -1.72364,0.18555 -0.52246,0.35156 -0.57618,0.84961 -0.1416,1.1084 0.43456,0.25879 1.20117,0.17579 1.71875,-0.18066"
       id="path1414" />
    <path
       inkscape:connector-curvature="0"
       style="fill:#ffffff;fill-opacity:1;fill-rule:evenodd;stroke:none"
       d="m 240.49737,364.42634 -0.083,-0.0927 c -0.95704,0.20019 -1.12793,0.22949 -2.01173,0.34668 l -0.0684,0.0586 c 0,0.0146 0,0.0341 -0.005,0.044 l -0.005,-0.01 c -0.65917,1.51855 -0.63476,1.18652 -1.16699,2.37792 -0.005,-0.0538 -0.005,-0.0976 -0.005,-0.14647 l -0.13671,-2.57813 -0.083,-0.0928 c -1.00097,0.20019 -1.03027,0.22949 -1.95312,0.34668 l -0.0733,0.0586 c -0.01,0.039 -0.0146,0.0684 -0.0195,0.10737 l 0.01,0.01 c 0.11225,0.5957 0.0879,0.46387 0.20507,1.39648 0.0489,0.45411 0.12213,0.92286 0.17578,1.37696 0.0928,0.75684 0.14648,1.13281 0.25391,2.28028 -0.625,1.04491 -0.77149,1.43553 -1.37208,2.34375 l 0,0 -0.4248,0.6787 c -0.0489,0.0733 -0.0927,0.11712 -0.15625,0.14161 -0.0635,0.0292 -0.15625,0.044 -0.27832,0.044 l -0.32226,0 -0.27833,1.21094 1.21094,-0.0195 c 0.70312,-0.005 1.15235,-0.35157 1.39161,-0.79103 l 0.74706,-1.29394 4.44825,-7.79785 z m 0,0"
       id="path1416" />
  </g>
</svg>
