<svg xmlns="http://www.w3.org/2000/svg" xmlns:xlink="http://www.w3.org/1999/xlink" width="137" height="37" viewBox="0 0 137 37">
    <defs>
        <path id="fxd4ddphza" d="M0.028 0.286L2.227 0.286 2.227 2.47 0.028 2.47z"/>
        <path id="7spq7apxic" d="M0 0.363L42.216 0.363 42.216 36.63 0 36.63z"/>
        <path id="upd965j6re" d="M0 0.363L37.376 0.363 37.376 36.63 0 36.63z"/>
    </defs>
    <g fill="none" fill-rule="evenodd">
        <g>
            <g>
                <path fill="#231F20" d="M46.28 30.459h.147c.374 0 .773-.05.773-.59v-5.437c0-.542-.399-.59-.773-.59h-.146v-.317c.408 0 1.033.043 1.546.043.522 0 1.148-.043 1.638-.043v.316h-.146c-.375 0-.773.05-.773.59v5.437c0 .542.398.591.773.591h.146v.313c-.5 0-1.128-.04-1.65-.04-.512 0-1.126.04-1.534.04v-.313zM56.64 28.727l.02-.02v-3.892c0-.851-.595-.974-.91-.974h-.228v-.315c.49 0 .972.042 1.462.042.427 0 .857-.042 1.283-.042v.315h-.154c-.44 0-.932.08-.932 1.316v4.723c0 .363.012.725.064 1.047h-.397l-5.378-5.956v4.274c0 .906.176 1.214.98 1.214h.178v.313c-.448 0-.898-.04-1.348-.04-.467 0-.949.04-1.418.04v-.313h.146c.72 0 .94-.485.94-1.317v-4.37c0-.581-.482-.931-.95-.931h-.136v-.315c.395 0 .803.042 1.199.042.315 0 .619-.042.93-.042l4.649 5.201zM59.831 24.046c-.784 0-.812.187-.97.944h-.313c.043-.29.093-.58.126-.883.04-.29.063-.581.063-.88h.25c.085.311.345.299.627.299h5.389c.28 0 .543-.01.564-.32l.248.042c-.038.278-.08.56-.113.84-.021.28-.021.56-.021.84l-.312.117c-.021-.386-.075-1-.774-1h-1.712v5.523c0 .801.366.891.867.891h.197v.313c-.406 0-1.138-.041-1.702-.041-.625 0-1.358.041-1.765.041v-.313h.198c.576 0 .866-.05.866-.869v-5.544h-1.713zM66.15 30.459h.146c.375 0 .772-.05.772-.59v-5.437c0-.542-.397-.59-.772-.59h-.146v-.317c.635 0 1.725.043 2.6.043.878 0 1.963-.043 2.67-.043-.017.448-.006 1.135.025 1.591l-.316.083c-.05-.674-.175-1.213-1.272-1.213h-1.448v2.716h1.239c.628 0 .764-.35.825-.91h.312c-.02.404-.03.808-.03 1.213 0 .395.01.789.03 1.182l-.312.063c-.061-.623-.093-1.028-.815-1.028h-1.25v2.418c0 .675.604.675 1.27.675 1.256 0 1.808-.083 2.121-1.266l.292.074c-.136.551-.26 1.097-.355 1.65-.667 0-1.87-.042-2.809-.042-.94 0-2.182.041-2.777.041v-.313zM74.838 27.035h.51c1.045 0 1.608-.393 1.608-1.619 0-.921-.595-1.515-1.524-1.515-.316 0-.449.033-.594.042v3.092zm-1.336-2.408c0-.758-.418-.787-.742-.787h-.19v-.314c.334 0 .982.042 1.62.042.625 0 1.127-.042 1.682-.042 1.313 0 2.482.353 2.482 1.829 0 .933-.624 1.503-1.45 1.828l1.788 2.654c.291.44.498.562 1.01.622v.313c-.344 0-.678-.041-1.022-.041-.326 0-.659.041-.982.041-.804-1.047-1.494-2.17-2.172-3.364h-.688v2.221c0 .802.375.83.854.83h.19v.313c-.597 0-1.202-.041-1.797-.041-.5 0-.992.041-1.515.041v-.313h.19c.384 0 .742-.174.742-.56v-5.272zM86.792 28.727l.02-.02v-3.892c0-.851-.595-.974-.907-.974h-.23v-.315c.491 0 .969.042 1.462.042.43 0 .856-.042 1.285-.042v.315h-.155c-.44 0-.931.08-.931 1.316v4.723c0 .363.009.725.06 1.047h-.394l-5.378-5.956v4.274c0 .906.178 1.214.982 1.214h.179v.313c-.45 0-.901-.04-1.35-.04-.47 0-.95.04-1.419.04v-.313h.144c.723 0 .94-.485.94-1.317v-4.37c0-.581-.48-.931-.948-.931h-.136v-.315c.395 0 .806.042 1.2.042.312 0 .615-.042.929-.042l4.647 5.201zM91.627 24.69h-.02l-.972 2.937h1.951l-.959-2.937zm-1.523 4.598c-.106.352-.234.625-.234.808 0 .313.442.363.785.363h.116v.312c-.42-.02-.847-.04-1.266-.04-.376 0-.75.02-1.125.04v-.312h.06c.408 0 .755-.239.907-.674l1.673-4.761c.135-.386.326-.903.387-1.29.334-.113.752-.32.95-.445.033-.011.05-.019.084-.019.03 0 .05 0 .073.03.031.083.062.176.095.26l1.92 5.428c.125.363.251.748.385 1.06.127.289.347.411.691.411h.061v.312c-.468-.02-.939-.04-1.439-.04-.51 0-1.034.02-1.565.04v-.312h.115c.238 0 .646-.039.646-.299 0-.136-.093-.416-.211-.748l-.407-1.204h-2.37l-.33 1.08zM96.128 24.046c-.785 0-.815.187-.972.944h-.315c.043-.29.096-.58.127-.883.042-.29.063-.581.063-.88h.25c.083.311.345.299.626.299h5.389c.281 0 .54-.01.562-.32l.251.042c-.04.278-.08.56-.114.84-.026.28-.026.56-.026.84l-.31.117c-.017-.386-.072-1-.77-1h-1.714v5.523c0 .801.366.891.868.891h.197v.313c-.406 0-1.137-.041-1.702-.041-.625 0-1.358.041-1.767.041v-.313h.2c.577 0 .87-.05.87-.869v-5.544h-1.713zM102.494 30.459h.146c.378 0 .773-.05.773-.59v-5.437c0-.542-.395-.59-.773-.59h-.146v-.317c.407 0 1.033.043 1.544.043.523 0 1.149-.043 1.643-.043v.316h-.146c-.379 0-.777.05-.777.59v5.437c0 .542.398.591.777.591h.146v.313c-.503 0-1.13-.04-1.652-.04-.513 0-1.128.04-1.535.04v-.313zM110.001 30.471c2.029 0 2.379-1.775 2.379-3.288 0-1.517-.821-3.354-2.556-3.354-1.826 0-2.37 1.619-2.37 3.008 0 1.859.857 3.634 2.547 3.634m-.156-7.099c2.225 0 4 1.37 4 3.582 0 2.387-1.722 3.973-3.947 3.973-2.217 0-3.904-1.492-3.904-3.727 0-2.155 1.68-3.828 3.85-3.828M120.883 28.727l.021-.02v-3.892c0-.851-.596-.974-.912-.974h-.225v-.315c.488 0 .97.042 1.46.042.431 0 .858-.042 1.285-.042v.315h-.156c-.441 0-.932.08-.932 1.316v4.723c0 .363.012.725.064 1.047h-.398l-5.377-5.956v4.274c0 .906.177 1.214.982 1.214h.177v.313c-.449 0-.897-.04-1.347-.04-.47 0-.951.04-1.422.04v-.313h.148c.723 0 .937-.485.937-1.317v-4.37c0-.581-.477-.931-.95-.931h-.135v-.315c.398 0 .804.042 1.203.042.312 0 .615-.042.928-.042l4.65 5.201zM125.715 24.69h-.02l-.973 2.937h1.957l-.964-2.937zm-1.525 4.598c-.102.352-.229.625-.229.808 0 .313.442.363.782.363h.117v.312c-.419-.02-.846-.04-1.264-.04-.38 0-.753.02-1.126.04v-.312h.057c.41 0 .757-.239.911-.674l1.673-4.761c.136-.386.322-.903.385-1.29.334-.113.751-.32.95-.445.032-.011.053-.019.085-.019.03 0 .049 0 .072.03.032.083.062.176.097.26l1.92 5.428c.122.363.25.748.386 1.06.123.289.345.411.689.411h.062v.312c-.469-.02-.94-.04-1.44-.04-.513 0-1.036.02-1.569.04v-.312h.117c.238 0 .648-.039.648-.299 0-.136-.096-.416-.211-.748l-.405-1.204h-2.369l-.338 1.08zM132.39 29.755c0 .415.29.54.625.582.427.031.897.031 1.38-.02.436-.051.814-.302 1-.562.167-.23.259-.518.325-.748h.303c-.117.592-.263 1.175-.39 1.765-.917 0-1.837-.041-2.753-.041-.92 0-1.84.041-2.758.041v-.313h.143c.38 0 .786-.05.786-.695v-5.333c0-.541-.406-.59-.786-.59h-.143v-.315c.553 0 1.097.042 1.648.042.534 0 1.056-.042 1.59-.042v.315h-.263c-.396 0-.707.01-.707.56v5.354z" transform="translate(-40.000000, -16.000000) translate(40.000000, 16.000000)"/>
                <g transform="translate(-40.000000, -16.000000) translate(40.000000, 16.000000) translate(134.766304, 22.947511)">
                    <mask id="3hnrv5vwyb" fill="#fff">
                        <use xlink:href="#fxd4ddphza"/>
                    </mask>
                    <path fill="#231F20" d="M.953 1.381h.13c.141 0 .207-.106.207-.278 0-.175-.105-.235-.216-.235h-.12v.513zm-.371.577v-.054c.133-.019.16-.013.16-.099V.998C.741.883.728.844.584.85V.794h.565c.19 0 .37.093.37.29 0 .165-.108.282-.26.33l.179.252c.086.11.181.22.244.257v.035H1.47c-.103 0-.192-.216-.395-.503h-.12v.362c0 .074.025.068.158.087v.054h-.53zm.546.31c.492 0 .87-.416.87-.887 0-.47-.37-.892-.87-.892-.496 0-.872.421-.872.892 0 .471.376.886.872.886zm0-1.982c.629 0 1.1.482 1.1 1.095 0 .614-.471 1.09-1.1 1.09-.628 0-1.1-.476-1.1-1.09C.028.768.5.286 1.128.286z" mask="url(#3hnrv5vwyb)"/>
                </g>
                <path fill="#231F20" d="M112.243 9.508h-.48c-.363-2.23-1.957-3.127-4.104-3.127-2.21 0-5.416 1.468-5.416 6.043 0 3.856 2.77 6.622 5.722 6.622 1.9 0 3.474-1.296 3.858-3.3l.44.113-.44 2.786c-.806.498-2.977 1.01-4.244 1.01-4.49 0-7.328-2.879-7.328-7.17 0-3.91 3.51-6.715 7.273-6.715 1.555 0 3.05.496 4.528 1.01l.191 2.728zM112.934 18.873h.366c.538 0 .923 0 .923-.632V7.623c0-1.242-.288-1.28-1.018-1.49v-.305c.766-.249 1.573-.59 1.977-.82.21-.115.365-.212.421-.212.117 0 .154.115.154.27V18.24c0 .632.423.632.96.632h.326v.497c-.65 0-1.323-.037-2.016-.037-.689 0-1.38.02-2.093.037v-.497zM125.258 18.32c0 .345.21.362.538.362.228 0 .518-.017.768-.017v.402c-.828.075-2.4.475-2.767.59l-.094-.058v-1.543c-1.15.934-2.036 1.6-3.4 1.6-1.035 0-2.108-.666-2.108-2.267v-4.884c0-.498-.079-.975-1.15-1.069v-.362c.692-.021 2.223-.133 2.474-.133.213 0 .213.133.213.552v4.92c0 .571 0 2.212 1.669 2.212.65 0 1.515-.497 2.32-1.16V12.33c0-.38-.92-.588-1.61-.781v-.343c1.727-.115 2.803-.265 2.994-.265.153 0 .153.133.153.343v7.036zM129.076 17.214c0 .726.69 1.946 1.978 1.946 2.055 0 2.918-2.004 2.918-3.702 0-2.058-1.574-3.775-3.07-3.775-.715 0-1.307.459-1.826.899v4.632zm0-5.189c.768-.646 1.806-1.37 2.86-1.37 2.226 0 3.57 1.927 3.57 4.004 0 2.497-1.842 4.997-4.589 4.997-1.42 0-2.166-.457-2.666-.666l-.575.437-.402-.209c.169-1.125.266-2.233.266-3.395v-8.2c0-1.242-.287-1.281-1.016-1.49v-.306c.77-.247 1.573-.588 1.977-.82.21-.114.364-.21.423-.21.115 0 .152.114.152.269v6.96zM49.947 17.119c0 1.47 1.056 1.64 1.996 1.64 4.147 0 5.506-3.108 5.506-5.951 0-3.565-2.301-6.14-6.005-6.14-.787 0-1.15.055-1.497.075V17.12zm-1.88-8.947c0-1.715-.903-1.602-1.765-1.622v-.492c.747.034 1.515.034 2.264.034.806 0 1.9-.034 3.32-.034 4.97 0 7.676 3.297 7.676 6.675 0 1.888-1.112 6.637-7.906 6.637-.976 0-1.881-.037-2.782-.037-.864 0-1.71.02-2.572.037v-.497c1.149-.114 1.708-.152 1.765-1.449V8.172zM62.29 7.716c-.502 0-.942-.458-.942-.953 0-.478.46-.918.942-.918.496 0 .94.401.94.918 0 .514-.423.953-.94.953zm-2.055 11.157h.364c.537 0 .92 0 .92-.632v-5.166c0-.839-.285-.954-.998-1.333v-.306c.903-.269 1.978-.628 2.056-.688.134-.074.248-.094.345-.094.095 0 .133.113.133.266v7.321c0 .632.424.632.96.632h.326v.497c-.653 0-1.324-.037-2.014-.037-.691 0-1.382.02-2.092.037v-.497zM66.165 13.189c0-.704-.211-.895-1.112-1.256v-.365c.824-.267 1.61-.516 2.532-.914.058 0 .114.037.114.188v1.243c1.095-.784 2.037-1.431 3.323-1.431 1.63 0 2.207 1.18 2.207 2.67v4.918c0 .632.423.632.959.632h.345v.496c-.674 0-1.345-.037-2.033-.037-.692 0-1.383.02-2.074.037v-.496h.346c.538 0 .919 0 .919-.632v-4.937c0-1.089-.67-1.621-1.765-1.621-.614 0-1.591.494-2.227.915v5.643c0 .632.426.632.963.632h.345v.496c-.672 0-1.346-.037-2.038-.037-.688 0-1.38.02-2.07.037v-.496h.346c.537 0 .92 0 .92-.632v-5.053zM79.39 13.495c.478 0 .534-.248.534-.476 0-.975-.594-1.756-1.668-1.756-1.17 0-1.976.857-2.207 2.232h3.341zm-3.397.612c-.04.171-.04.456 0 1.105.112 1.813 1.285 3.3 2.819 3.3 1.056 0 1.884-.573 2.592-1.278l.269.267c-.884 1.163-1.976 2.154-3.549 2.154-3.054 0-3.666-2.937-3.666-4.156 0-3.739 2.532-4.845 3.873-4.845 1.556 0 3.228.971 3.246 2.992 0 .118 0 .23-.018.346l-.175.115h-5.391zM82.017 18.873h.52c.537 0 .918 0 .918-.632v-5.357c0-.59-.708-.705-.996-.859v-.283c1.4-.593 2.17-1.088 2.343-1.088.114 0 .171.055.171.248v1.715h.041c.478-.742 1.284-1.963 2.455-1.963.48 0 1.092.322 1.092 1.01 0 .515-.361.975-.9.975-.597 0-.597-.46-1.267-.46-.326 0-1.402.438-1.402 1.585v4.477c0 .632.384.632.921.632h1.075v.497c-1.056-.018-1.86-.037-2.685-.037-.789 0-1.594.02-2.286.037v-.497zM89.405 16.719c.252 1.258 1.019 2.328 2.42 2.328 1.132 0 1.552-.688 1.552-1.355 0-2.25-4.18-1.528-4.18-4.597 0-1.07.864-2.44 2.975-2.44.613 0 1.438.17 2.186.551l.135 1.946h-.44c-.192-1.201-.866-1.89-2.094-1.89-.768 0-1.496.44-1.496 1.26 0 2.233 4.451 1.546 4.451 4.54 0 1.258-1.017 2.594-3.299 2.594-.77 0-1.672-.266-2.343-.647l-.211-2.194.344-.096z" transform="translate(-40.000000, -16.000000) translate(40.000000, 16.000000)"/>
                <g transform="translate(-40.000000, -16.000000) translate(40.000000, 16.000000) translate(0.000000, 0.007511)">
                    <mask id="36mkebmyld" fill="#fff">
                        <use xlink:href="#7spq7apxic"/>
                    </mask>
                    <path fill="#004C97" d="M18.404 36.63C8.309 36.676 0 28.549 0 18.654 0 7.84 8.309.36 18.404.362h4.732c9.975-.002 19.08 7.474 19.08 18.292 0 9.89-9.105 17.976-19.08 17.976h-4.732z" mask="url(#36mkebmyld)"/>
                </g>
                <g transform="translate(-40.000000, -16.000000) translate(40.000000, 16.000000) translate(0.000000, 0.007511)">
                    <mask id="f64frahwrf" fill="#fff">
                        <use xlink:href="#upd965j6re"/>
                    </mask>
                    <path fill="#004C97" d="M18.404 36.63C8.309 36.676 0 28.549 0 18.654 0 7.84 8.309.36 18.404.362h.265C28.643.36 37.376 7.836 37.376 18.654c0 9.89-8.733 17.976-18.707 17.976h-.265z" mask="url(#f64frahwrf)"/>
                </g>
                <path fill="#FEFEFE" d="M18.445 1.87c-9.225.003-16.7 7.433-16.7 16.602 0 9.167 7.475 16.596 16.7 16.597 9.226 0 16.702-7.43 16.705-16.597-.003-9.17-7.48-16.6-16.705-16.602" transform="translate(-40.000000, -16.000000) translate(40.000000, 16.000000)"/>
                <path fill="#004C97" d="M14.653 28.288V8.652c-3.97 1.52-6.785 5.338-6.795 9.82.01 4.48 2.826 8.3 6.795 9.816M29.034 18.472c-.008-4.484-2.827-8.307-6.801-9.822v19.643c3.974-1.517 6.793-5.336 6.8-9.821" transform="translate(-40.000000, -16.000000) translate(40.000000, 16.000000)"/>
            </g>
        </g>
    </g>
</svg>
